# xmcd
# 
# Track frame offsets:
#     150
#     13600
#     32597
#     48540
#     63127
#     78480
#     91230
#     106985
#     120592
#     142332
#     158607
#     172347
#     186265
#     207932
#     230060
# 
# Disc length: 3099
# 
# Revision: 0
# Processed by: cddbd v1.5.2PL0 Copyright (c) Steve Scherf et al.
# Submitted via: fre:ac v1.0.17
# 
DISCID=cd0c190f
DTITLE=Merle Haggard - The very best of Merle Haggard
DYEAR=2008
DGENRE=Country
TTITLE0=Big City
TTITLE1=AreTthe Good Times Really Over For good
TTITLE2=Someday When Things Are Good
TTITLE3=Yesterday's Wine with George Jones
TTITLE4=Twinkle, Twinkle Lucky Star
TTITLE5=Let's Chase Each Other Around The Room
TTITLE6=I Always Get Lucky With You
TTITLE7=That's The Way Love Goes
TTITLE8=Going Where The Lonely Go
TTITLE9=A Place To Fall Apart with Janie Fricke
TTITLE10=I Had A Beautiful Time
TTITLE11=My Favorite Memory
TTITLE12=Pancho And Lefty with Willie Nelson
TTITLE13=The Okie From Muskogee's Comin' Home
TTITLE14=Data track
EXTD=Merle Haggard
EXTT0=The very best of Merle Haggard
EXTT1=
EXTT2=
EXTT3=
EXTT4=
EXTT5=
EXTT6=
EXTT7=
EXTT8=
EXTT9=
EXTT10=
EXTT11=
EXTT12=
EXTT13=
EXTT14=
PLAYORDER=
